<?xml version="1.0" encoding="utf-8"?>
<!-- Generator: Adobe Illustrator 19.0.0, SVG Export Plug-In . SVG Version: 6.00 Build 0)  -->
<svg version="1.1" id="Warstwa_1" xmlns="http://www.w3.org/2000/svg" xmlns:xlink="http://www.w3.org/1999/xlink" x="0px" y="0px"
	 viewBox="0 0 1900 400" style="enable-background:new 0 0 1900 400;" xml:space="preserve">
<style type="text/css">
	.st0{opacity:0.4;fill:#46BFB1;}
	.st1{opacity:0.49;fill:#F05465;}
	.st2{fill:#F05465;}
	.st3{opacity:0.54;fill:#F05465;}
	.st4{opacity:0.46;fill:#73439A;}
	.st5{opacity:0.52;fill:#66C6BE;}
	.st6{opacity:0.73;fill:#DBD3AA;}
	.st7{opacity:0.72;fill:#A6BE7F;}
	.st8{opacity:0.57;fill:#C1968B;}
	.st9{opacity:0.21;fill:#C1968B;}
	.st10{opacity:0.68;fill:#66C6BE;}
	.st11{opacity:0.62;fill:#62A4D2;}
	.st12{opacity:0.37;fill:#89C540;}
	.st13{opacity:0.66;fill:#9CCC4C;}
	.st14{opacity:0.86;fill:#BDD631;}
	.st15{fill:#F5A1C6;}
	.st16{opacity:0.74;fill:#FCB02B;}
	.st17{fill:#FCB02B;}
	.st18{opacity:0.79;fill:#D41E41;}
	.st19{fill:#D41E41;}
	.st20{opacity:0.92;fill:#FCB02B;}
	.st21{opacity:0.6;fill:#73439A;}
	.st22{opacity:0.45;fill:#F1602A;}
	.st23{opacity:0.95;fill:#D2E8C9;}
	.st24{opacity:0.66;fill:#648E46;}
	.st25{opacity:0.43;fill:#F5864E;}
	.st26{opacity:0.61;fill:#F065A5;}
	.st27{opacity:0.51;fill:#82B1C1;}
	.st28{opacity:0.22;fill:#F04F44;}
	.st29{opacity:0.59;fill:#F285B5;}
	.st30{fill:#C158A1;}
	.st31{fill:#7D66AD;}
	.st32{opacity:0.47;fill:#408EC6;}
	.st33{opacity:0.76;fill:#408EC6;}
	.st34{opacity:0.49;fill:#FCB02B;}
	.st35{opacity:0.47;fill:#D41E41;}
	.st36{opacity:0.72;fill:#FCB02B;}
	.st37{opacity:0.35;fill:#EAE732;}
	.st38{opacity:0.56;fill:#EAE732;}
	.st39{opacity:0.45;fill:#DBD3AA;}
	.st40{opacity:0.19;fill:#F05465;}
	.st41{opacity:0.35;fill:#73439A;}
	.st42{opacity:0.32;fill:#66C6BE;}
	.st43{opacity:0.31;fill:#648E46;}
	.st44{opacity:0.54;fill:#BDD631;}
</style>
<polygon id="XMLID_58_" class="st0" points="-10,329.5 453.6,190 -10,354.5 "/>
<polygon id="XMLID_57_" class="st1" points="406.7,1 450.3,1 571.8,153.8 "/>
<polygon id="XMLID_56_" class="st2" points="247.8,142.1 425.1,227.6 394.8,242.9 "/>
<polygon id="XMLID_55_" class="st3" points="242.1,1 297.3,209.6 239.9,50.3 "/>
<polygon id="XMLID_54_" class="st4" points="402.6,1 406.7,1 425.9,18.8 297.6,210.8 "/>
<polygon id="XMLID_53_" class="st5" points="241.4,17.7 239.9,50.3 73.6,287.4 "/>
<polygon id="XMLID_52_" class="st6" points="508.8,128.3 559.6,56.4 624.6,1 "/>
<polygon id="XMLID_51_" class="st7" points="658.8,168.9 784.5,72.8 798.6,85 "/>
<polygon id="XMLID_50_" class="st8" points="784.5,1 798.6,85 784.5,72.8 "/>
<polygon id="XMLID_49_" class="st9" points="684,149.6 658.8,168.9 508.8,128.3 "/>
<polygon id="XMLID_48_" class="st10" points="915.5,146.4 788,21.9 784.5,1 "/>
<polygon id="XMLID_47_" class="st11" points="993,74.5 1032.2,71.7 915.5,146.4 "/>
<polygon id="XMLID_46_" class="st12" points="993,74.5 1032.2,71.7 1142.7,1 "/>
<polygon id="XMLID_45_" class="st13" points="1032.2,71.7 1258.8,171.8 1016.3,83 "/>
<polygon id="XMLID_44_" class="st14" points="1362.1,98.9 1541.1,251.2 1332.8,119.6 "/>
<polygon id="XMLID_43_" class="st15" points="1344.6,1 1362.1,98.9 1332.8,119.6 "/>
<polygon id="XMLID_42_" class="st16" points="1445.6,115.9 1458.1,133.7 1568.1,1 "/>
<polygon id="XMLID_41_" class="st17" points="1445.6,115.9 1458.1,133.7 1428.6,145.6 "/>
<polygon id="XMLID_40_" class="st18" points="1607.3,164.5 1622.2,137.2 1592.3,1.9 "/>
<polygon id="XMLID_39_" class="st19" points="1622.2,137.2 1724.4,43.7 1607.3,164.5 "/>
<polygon id="XMLID_38_" class="st2" points="1592.3,1.9 1720.1,74.5 1719.9,27.7 "/>
<polygon id="XMLID_37_" class="st20" points="1872.5,1 1660.4,273.8 1658.7,232.7 "/>
<polygon id="XMLID_36_" class="st21" points="1658.7,232.7 1909.4,226.4 1660.4,273.8 "/>
<polygon id="XMLID_35_" class="st22" points="358.3,223.8 571.8,153.8 314.9,260.4 "/>
<polygon id="XMLID_34_" class="st23" points="83.1,3 73.6,287.4 44.5,159.5 "/>
<polygon id="XMLID_33_" class="st24" points="371.8,136.5 73.6,287.4 44.5,159.5 "/>
<polygon id="XMLID_32_" class="st25" points="-10,354.5 61.7,158.3 44.5,159.5 "/>
<polygon id="XMLID_31_" class="st26" points="-10,1 50.9,187.7 61.7,158.3 "/>
<polygon id="XMLID_30_" class="st27" points="598.8,1 584.7,35 788,21.9 "/>
<polygon id="XMLID_29_" class="st28" points="765.5,1 799.9,1 658.8,168.9 "/>
<polygon id="XMLID_28_" class="st0" points="164.5,1 453.6,190 -10,354.5 -10,1 "/>
<polygon id="XMLID_27_" class="st29" points="242.1,1 306.6,1 297.6,210.8 "/>
<polygon id="XMLID_26_" class="st30" points="332.1,1 297.6,210.8 306.6,1 "/>
<polygon id="XMLID_25_" class="st31" points="402.6,1 297.6,210.8 332.1,1 "/>
<polygon id="XMLID_24_" class="st32" points="116.1,1 274.4,1 73.4,288.7 "/>
<polygon id="XMLID_23_" class="st33" points="128.4,1 73.4,288.7 83.2,1 "/>
<polygon id="XMLID_22_" class="st34" points="1910,1 1664.1,364.1 1649.2,1.8 "/>
<polygon id="XMLID_21_" class="st35" points="1622.2,137.2 1592.3,1.9 1724.4,43.7 "/>
<polygon id="XMLID_20_" class="st36" points="1720.2,99 1635.2,50.4 1719.8,1 "/>
<polygon id="XMLID_19_" class="st37" points="1784,1.8 1428.6,145.6 1542.6,1.8 "/>
<polygon id="XMLID_18_" class="st38" points="1568.1,1 1428.6,146.4 1344.6,1 "/>
<polygon id="XMLID_17_" class="st12" points="1247,1 1414.9,61.6 1258.8,171.8 993,74.5 953.2,1 "/>
<polygon id="XMLID_16_" class="st39" points="798.6,85 658.8,168.9 508.8,128.3 598.8,1 784.5,1 "/>
<polygon id="XMLID_15_" class="st40" points="571.8,153.8 394.8,242.9 247.8,142.1 285.3,1 450.3,1 "/>
<polygon id="XMLID_14_" class="st41" points="1872.5,1 1910,1 1910,226.2 1628.1,315.3 "/>
<polygon id="XMLID_13_" class="st42" points="1142.7,1 915.5,146.4 765.5,1 "/>
<polygon id="XMLID_12_" class="st43" points="624.6,1 314.9,260.4 434.1,1 "/>
<polygon id="XMLID_11_" class="st44" points="1541.1,251.2 1247,1 1364.6,1.1 "/>
</svg>
